<svg version="1.1" xmlns="http://www.w3.org/2000/svg" viewBox="0 0 413.5332137176096 321.4769958672272" width="413.5332137176096" height="321.4769958672272">
  <!-- svg-source:excalidraw -->
  
  <defs>
    <style class="style-fonts">
      @font-face {
        font-family: "Virgil";
        src: url("https://excalidraw.com/Virgil.woff2");
      }
      @font-face {
        font-family: "Cascadia";
        src: url("https://excalidraw.com/Cascadia.woff2");
      }
      @font-face {
        font-family: "Assistant";
        src: url("https://excalidraw.com/Assistant-Regular.woff2");
      }
    </style>
    
  </defs>
  <g stroke-linecap="round" transform="translate(10.000000000000057 52.79253252198973) rotate(0 129.34223167261877 129.34223167261874)"><path d="M77.33 10.21 C88.78 3.2, 105.1 1.3, 119.18 0.3 C133.25 -0.7, 148.29 0.63, 161.79 4.23 C175.29 7.84, 188.47 14.37, 200.18 21.92 C211.9 29.46, 223.46 38.65, 232.05 49.5 C240.64 60.35, 247.37 73.57, 251.72 86.99 C256.07 100.42, 258.31 115.91, 258.13 130.07 C257.94 144.22, 255.2 158.73, 250.59 171.92 C245.98 185.11, 239.13 198.2, 230.47 209.22 C221.8 220.23, 210.24 230.28, 198.62 238.01 C186.99 245.75, 174.08 252.23, 160.74 255.63 C147.39 259.04, 132.52 259.8, 118.55 258.44 C104.58 257.09, 89.86 253.24, 76.91 247.5 C63.97 241.75, 51.23 233.47, 40.87 223.99 C30.5 214.51, 21.33 202.83, 14.72 190.6 C8.12 178.37, 3.21 164.55, 1.22 150.62 C-0.77 136.69, 0.16 120.89, 2.77 107.03 C5.37 93.16, 10.38 79.77, 16.85 67.43 C23.32 55.09, 29.31 43.14, 41.59 33.01 C53.87 22.88, 79.98 11.36, 90.55 6.64 C101.12 1.92, 104.26 2.61, 105.01 4.69 M128.67 -1.49 C141.7 -3.31, 157.97 1.93, 171.55 6.96 C185.13 11.99, 198.86 19.8, 210.13 28.69 C221.4 37.58, 231.61 48.94, 239.18 60.3 C246.75 71.65, 252.47 83.46, 255.56 96.82 C258.64 110.19, 258.96 126.21, 257.71 140.48 C256.45 154.76, 253.8 169.58, 248.02 182.46 C242.23 195.33, 232.61 207.82, 223 217.73 C213.38 227.64, 202.54 235.37, 190.33 241.92 C178.12 248.48, 163.67 254.68, 149.74 257.05 C135.81 259.43, 120.32 258.38, 106.76 256.2 C93.21 254.02, 80.73 250.35, 68.42 243.97 C56.1 237.58, 42.25 228.62, 32.87 217.87 C23.49 207.13, 17.47 192.56, 12.12 179.5 C6.77 166.44, 1.97 153.5, 0.75 139.53 C-0.46 125.57, 1.63 109.19, 4.83 95.7 C8.02 82.21, 12.18 70.13, 19.93 58.61 C27.68 47.09, 40.26 35.43, 51.34 26.61 C62.43 17.78, 73.3 10.2, 86.43 5.66 C99.56 1.11, 122.93 -0.28, 130.11 -0.67 C137.29 -1.06, 129.34 1.04, 129.5 3.3" stroke="#1e1e1e" stroke-width="2" fill="none"></path></g><g stroke-linecap="round" transform="translate(148.11202307783486 54.798043207102836) rotate(0 127.71059531988737 127.7105953198874)"><path d="M70.26 13.5 C81.21 5.9, 96.96 3.04, 110.61 1.28 C124.25 -0.48, 138.53 0.43, 152.12 2.95 C165.71 5.47, 180.14 9.69, 192.13 16.39 C204.13 23.1, 215.18 32.55, 224.1 43.16 C233.01 53.77, 240.57 67.1, 245.61 80.08 C250.66 93.06, 253.65 107.24, 254.37 121.02 C255.09 134.8, 253.76 149.44, 249.95 162.74 C246.14 176.04, 239.29 189.35, 231.51 200.82 C223.74 212.3, 214.23 223.39, 203.31 231.58 C192.39 239.77, 179.24 246.01, 166.01 249.96 C152.78 253.92, 137.91 255.8, 123.93 255.32 C109.96 254.85, 95.22 251.94, 82.18 247.1 C69.14 242.27, 56.32 235.02, 45.68 226.32 C35.03 217.61, 25.24 206.8, 18.28 194.89 C11.32 182.99, 6.66 168.45, 3.91 154.88 C1.16 141.32, 0.47 127.3, 1.77 113.5 C3.08 99.71, 6.06 84.51, 11.75 72.13 C17.45 59.75, 25.53 49.34, 35.94 39.23 C46.35 29.12, 66.98 15.81, 74.22 11.48 C81.45 7.16, 78.46 11.16, 79.35 13.29 M76.52 10.36 C88.12 3.71, 104.49 2.34, 118.53 1.49 C132.56 0.64, 147.4 2.22, 160.75 5.27 C174.1 8.31, 187.37 12.37, 198.63 19.75 C209.88 27.13, 219.86 38.28, 228.27 49.54 C236.68 60.81, 244.75 74.16, 249.08 87.33 C253.42 100.5, 254.41 115.07, 254.28 128.54 C254.14 142.02, 252.66 155.17, 248.25 168.17 C243.85 181.17, 236.5 195.54, 227.86 206.55 C219.22 217.56, 207.78 226.53, 196.43 234.23 C185.08 241.93, 173.18 249.07, 159.74 252.75 C146.3 256.42, 129.49 257.87, 115.78 256.27 C102.06 254.68, 89.87 248.99, 77.45 243.18 C65.02 237.37, 51.5 230.82, 41.24 221.42 C30.99 212.01, 22.76 198.85, 15.92 186.74 C9.09 174.63, 2.43 162.23, 0.25 148.76 C-1.94 135.29, 0.51 119.82, 2.84 105.92 C5.16 92.02, 7.69 77.55, 14.18 65.36 C20.67 53.17, 31.39 41.79, 41.77 32.78 C52.15 23.77, 70.23 14.61, 76.45 11.3 C82.67 7.99, 77.92 11.09, 79.07 12.93" stroke="#1e1e1e" stroke-width="2" fill="none"></path></g><g stroke-linecap="round"><g transform="translate(152.1575871852919 183.08367350559925) rotate(0 56.944718288039326 -0.5587795728532114)"><path d="M-1.12 -0.76 C17.94 -0.89, 94.23 -1.21, 113.38 -1.25 M0.5 1.45 C19.44 1.56, 93.42 0.4, 112.16 0.21" stroke="#1e1e1e" stroke-width="2" fill="none"></path></g></g><mask></mask><g transform="translate(59.25387943986004 145.83034736490654) rotate(0 36.06996154785159 12.5)"><text x="0" y="17.52" font-family="Virgil, Segoe UI Emoji" font-size="20px" fill="#1e1e1e" text-anchor="start" style="white-space: pre;" direction="ltr" dominant-baseline="alphabetic">deleted</text></g><g transform="translate(265.12826381764074 10) rotate(0 13.08599853515625 22.5)"><text x="0" y="31.536" font-family="Virgil, Segoe UI Emoji" font-size="36px" fill="#1e1e1e" text-anchor="start" style="white-space: pre;" direction="ltr" dominant-baseline="alphabetic">B</text></g><g transform="translate(176.50084112860856 130.9773773817648) rotate(0 37.95995330810547 12.5)"><text x="0" y="17.52" font-family="Virgil, Segoe UI Emoji" font-size="20px" fill="#1e1e1e" text-anchor="start" style="white-space: pre;" direction="ltr" dominant-baseline="alphabetic">modified</text></g><g transform="translate(161.38737762721922 198.27069335904523) rotate(0 48.30994415283203 12.5)"><text x="0" y="17.52" font-family="Virgil, Segoe UI Emoji" font-size="20px" fill="#1e1e1e" text-anchor="start" style="white-space: pre;" direction="ltr" dominant-baseline="alphabetic">unmodified</text></g><g transform="translate(111.3717363160535 10) rotate(0 11.807998657226562 22.5)"><text x="0" y="31.536" font-family="Virgil, Segoe UI Emoji" font-size="36px" fill="#1e1e1e" text-anchor="start" style="white-space: pre;" direction="ltr" dominant-baseline="alphabetic">A</text></g><g transform="translate(288.96792970106065 143.53874217950462) rotate(0 38.869956970214844 12.5)"><text x="0" y="17.52" font-family="Virgil, Segoe UI Emoji" font-size="20px" fill="#1e1e1e" text-anchor="start" style="white-space: pre;" direction="ltr" dominant-baseline="alphabetic">inserted</text></g></svg>